<svg xmlns="http://www.w3.org/2000/svg" xmlns:xlink="http://www.w3.org/1999/xlink" width="1920" zoomAndPan="magnify" viewBox="0 0 1440 809.999993" height="1080" preserveAspectRatio="xMidYMid meet" version="1.0"><defs><g/></defs><rect x="-144" width="1728" fill="#ffffff" y="-80.999999" height="971.999992" fill-opacity="1"/><rect x="-144" width="1728" fill="#ffffff" y="-80.999999" height="971.999992" fill-opacity="1"/><rect x="-144" width="1728" fill="#fff2dc" y="-80.999999" height="971.999992" fill-opacity="1"/><g fill="#fff2dc" fill-opacity="1"><g transform="translate(372.164049, 301.429693)"><g><path d="M 18.78125 -13.375 L 15 -13.375 L 13.625 -7.640625 L 17.546875 -7.640625 L 17.546875 -6.0625 L 13.25 -6.0625 L 11.78125 0 L 10.09375 0 L 11.578125 -6.0625 L 6.0625 -6.0625 L 4.59375 0 L 2.890625 0 L 4.390625 -6.0625 L 1.078125 -6.0625 L 1.078125 -7.640625 L 4.765625 -7.640625 L 6.140625 -13.375 L 2.34375 -13.375 L 2.34375 -14.859375 L 6.515625 -14.859375 L 7.953125 -20.765625 L 9.65625 -20.765625 L 8.1875 -14.859375 L 13.71875 -14.859375 L 15.15625 -20.765625 L 16.84375 -20.765625 L 15.390625 -14.859375 L 18.78125 -14.859375 Z M 11.96875 -7.640625 L 13.34375 -13.375 L 7.8125 -13.375 L 6.4375 -7.640625 Z M 11.96875 -7.640625 "/></g></g></g><g fill="#fff2dc" fill-opacity="1"><g transform="translate(392.052536, 301.429693)"><g><path d="M 2.609375 0 L 2.609375 -20.765625 L 16.234375 -20.765625 L 16.234375 -18.953125 L 4.65625 -18.953125 L 4.65625 -11.3125 L 14.421875 -11.3125 L 14.421875 -9.625 L 4.65625 -9.625 L 4.65625 0 Z M 2.609375 0 "/></g></g></g><g fill="#fff2dc" fill-opacity="1"><g transform="translate(409.279475, 301.429693)"><g><path d="M 2.609375 0 L 2.609375 -20.765625 L 16.234375 -20.765625 L 16.234375 -18.953125 L 4.65625 -18.953125 L 4.65625 -11.3125 L 14.421875 -11.3125 L 14.421875 -9.625 L 4.65625 -9.625 L 4.65625 0 Z M 2.609375 0 "/></g></g></g><g fill="#fff2dc" fill-opacity="1"><g transform="translate(426.506415, 301.429693)"><g><path d="M 1.046875 -9.5625 C 1.046875 -10.5625 1.234375 -11.492188 1.609375 -12.359375 C 1.992188 -13.222656 2.519531 -13.976562 3.1875 -14.625 C 3.851562 -15.269531 4.632812 -15.773438 5.53125 -16.140625 C 6.425781 -16.515625 7.390625 -16.703125 8.421875 -16.703125 C 9.515625 -16.703125 10.519531 -16.5 11.4375 -16.09375 C 12.351562 -15.695312 13.132812 -15.128906 13.78125 -14.390625 C 14.4375 -13.648438 14.945312 -12.738281 15.3125 -11.65625 C 15.6875 -10.570312 15.875 -9.359375 15.875 -8.015625 C 15.875 -5.910156 15.6875 -4.070312 15.3125 -2.5 C 14.945312 -0.925781 14.425781 0.378906 13.75 1.421875 C 13.082031 2.460938 12.273438 3.234375 11.328125 3.734375 C 10.390625 4.242188 9.351562 4.5 8.21875 4.5 C 6.851562 4.5 5.617188 4.15625 4.515625 3.46875 C 3.410156 2.789062 2.578125 1.847656 2.015625 0.640625 L 3.3125 -0.53125 C 3.71875 0.46875 4.363281 1.265625 5.25 1.859375 C 6.132812 2.453125 7.125 2.75 8.21875 2.75 C 9.070312 2.75 9.847656 2.539062 10.546875 2.125 C 11.253906 1.71875 11.863281 1.128906 12.375 0.359375 C 12.882812 -0.410156 13.273438 -1.351562 13.546875 -2.46875 C 13.816406 -3.59375 13.960938 -4.875 13.984375 -6.3125 C 13.535156 -5.164062 12.785156 -4.25 11.734375 -3.5625 C 10.691406 -2.882812 9.507812 -2.546875 8.1875 -2.546875 C 7.195312 -2.546875 6.265625 -2.722656 5.390625 -3.078125 C 4.523438 -3.441406 3.769531 -3.941406 3.125 -4.578125 C 2.488281 -5.210938 1.984375 -5.957031 1.609375 -6.8125 C 1.234375 -7.675781 1.046875 -8.59375 1.046875 -9.5625 Z M 8.390625 -14.953125 C 7.648438 -14.953125 6.953125 -14.804688 6.296875 -14.515625 C 5.648438 -14.234375 5.078125 -13.847656 4.578125 -13.359375 C 4.078125 -12.878906 3.679688 -12.3125 3.390625 -11.65625 C 3.097656 -11 2.953125 -10.300781 2.953125 -9.5625 C 2.953125 -8.820312 3.097656 -8.125 3.390625 -7.46875 C 3.679688 -6.820312 4.078125 -6.253906 4.578125 -5.765625 C 5.078125 -5.273438 5.648438 -4.890625 6.296875 -4.609375 C 6.953125 -4.328125 7.648438 -4.1875 8.390625 -4.1875 C 9.128906 -4.1875 9.832031 -4.328125 10.5 -4.609375 C 11.164062 -4.890625 11.738281 -5.273438 12.21875 -5.765625 C 12.707031 -6.253906 13.09375 -6.820312 13.375 -7.46875 C 13.664062 -8.125 13.8125 -8.820312 13.8125 -9.5625 C 13.8125 -10.28125 13.664062 -10.96875 13.375 -11.625 C 13.09375 -12.28125 12.703125 -12.851562 12.203125 -13.34375 C 11.710938 -13.84375 11.140625 -14.234375 10.484375 -14.515625 C 9.828125 -14.804688 9.128906 -14.953125 8.390625 -14.953125 Z M 8.390625 -14.953125 "/></g></g></g><g fill="#fff2dc" fill-opacity="1"><g transform="translate(443.645614, 301.429693)"><g><path d="M 11.875 -1.8125 L 11.875 0 L 1.953125 0 L 1.953125 -1.8125 L 6.109375 -1.8125 L 6.109375 -14.328125 C 5.953125 -14.097656 5.679688 -13.84375 5.296875 -13.5625 C 4.921875 -13.289062 4.503906 -13.035156 4.046875 -12.796875 C 3.585938 -12.566406 3.113281 -12.375 2.625 -12.21875 C 2.144531 -12.070312 1.71875 -12 1.34375 -12 L 1.34375 -13.921875 C 1.789062 -13.921875 2.28125 -14.046875 2.8125 -14.296875 C 3.351562 -14.554688 3.863281 -14.847656 4.34375 -15.171875 C 4.820312 -15.503906 5.226562 -15.816406 5.5625 -16.109375 C 5.894531 -16.410156 6.078125 -16.609375 6.109375 -16.703125 L 8.15625 -16.703125 L 8.15625 -1.8125 Z M 11.875 -1.8125 "/></g></g></g><g fill="#fff2dc" fill-opacity="1"><g transform="translate(456.16366, 301.429693)"><g><path d="M 1.046875 -9.5625 C 1.046875 -10.5625 1.234375 -11.492188 1.609375 -12.359375 C 1.992188 -13.222656 2.519531 -13.976562 3.1875 -14.625 C 3.851562 -15.269531 4.632812 -15.773438 5.53125 -16.140625 C 6.425781 -16.515625 7.390625 -16.703125 8.421875 -16.703125 C 9.515625 -16.703125 10.519531 -16.5 11.4375 -16.09375 C 12.351562 -15.695312 13.132812 -15.128906 13.78125 -14.390625 C 14.4375 -13.648438 14.945312 -12.738281 15.3125 -11.65625 C 15.6875 -10.570312 15.875 -9.359375 15.875 -8.015625 C 15.875 -5.910156 15.6875 -4.070312 15.3125 -2.5 C 14.945312 -0.925781 14.425781 0.378906 13.75 1.421875 C 13.082031 2.460938 12.273438 3.234375 11.328125 3.734375 C 10.390625 4.242188 9.351562 4.5 8.21875 4.5 C 6.851562 4.5 5.617188 4.15625 4.515625 3.46875 C 3.410156 2.789062 2.578125 1.847656 2.015625 0.640625 L 3.3125 -0.53125 C 3.71875 0.46875 4.363281 1.265625 5.25 1.859375 C 6.132812 2.453125 7.125 2.75 8.21875 2.75 C 9.070312 2.75 9.847656 2.539062 10.546875 2.125 C 11.253906 1.71875 11.863281 1.128906 12.375 0.359375 C 12.882812 -0.410156 13.273438 -1.351562 13.546875 -2.46875 C 13.816406 -3.59375 13.960938 -4.875 13.984375 -6.3125 C 13.535156 -5.164062 12.785156 -4.25 11.734375 -3.5625 C 10.691406 -2.882812 9.507812 -2.546875 8.1875 -2.546875 C 7.195312 -2.546875 6.265625 -2.722656 5.390625 -3.078125 C 4.523438 -3.441406 3.769531 -3.941406 3.125 -4.578125 C 2.488281 -5.210938 1.984375 -5.957031 1.609375 -6.8125 C 1.234375 -7.675781 1.046875 -8.59375 1.046875 -9.5625 Z M 8.390625 -14.953125 C 7.648438 -14.953125 6.953125 -14.804688 6.296875 -14.515625 C 5.648438 -14.234375 5.078125 -13.847656 4.578125 -13.359375 C 4.078125 -12.878906 3.679688 -12.3125 3.390625 -11.65625 C 3.097656 -11 2.953125 -10.300781 2.953125 -9.5625 C 2.953125 -8.820312 3.097656 -8.125 3.390625 -7.46875 C 3.679688 -6.820312 4.078125 -6.253906 4.578125 -5.765625 C 5.078125 -5.273438 5.648438 -4.890625 6.296875 -4.609375 C 6.953125 -4.328125 7.648438 -4.1875 8.390625 -4.1875 C 9.128906 -4.1875 9.832031 -4.328125 10.5 -4.609375 C 11.164062 -4.890625 11.738281 -5.273438 12.21875 -5.765625 C 12.707031 -6.253906 13.09375 -6.820312 13.375 -7.46875 C 13.664062 -8.125 13.8125 -8.820312 13.8125 -9.5625 C 13.8125 -10.28125 13.664062 -10.96875 13.375 -11.625 C 13.09375 -12.28125 12.703125 -12.851562 12.203125 -13.34375 C 11.710938 -13.84375 11.140625 -14.234375 10.484375 -14.515625 C 9.828125 -14.804688 9.128906 -14.953125 8.390625 -14.953125 Z M 8.390625 -14.953125 "/></g></g></g><g fill="#fff2dc" fill-opacity="1"><g transform="translate(473.302859, 301.429693)"><g><path d="M 11.875 -1.8125 L 11.875 0 L 1.953125 0 L 1.953125 -1.8125 L 6.109375 -1.8125 L 6.109375 -14.328125 C 5.953125 -14.097656 5.679688 -13.84375 5.296875 -13.5625 C 4.921875 -13.289062 4.503906 -13.035156 4.046875 -12.796875 C 3.585938 -12.566406 3.113281 -12.375 2.625 -12.21875 C 2.144531 -12.070312 1.71875 -12 1.34375 -12 L 1.34375 -13.921875 C 1.789062 -13.921875 2.28125 -14.046875 2.8125 -14.296875 C 3.351562 -14.554688 3.863281 -14.847656 4.34375 -15.171875 C 4.820312 -15.503906 5.226562 -15.816406 5.5625 -16.109375 C 5.894531 -16.410156 6.078125 -16.609375 6.109375 -16.703125 L 8.15625 -16.703125 L 8.15625 -1.8125 Z M 11.875 -1.8125 "/></g></g></g><g fill="#fff2dc" fill-opacity="1"><g transform="translate(368.367175, 465.88956)"><g><path d="M 18.78125 -13.375 L 15 -13.375 L 13.625 -7.640625 L 17.546875 -7.640625 L 17.546875 -6.0625 L 13.25 -6.0625 L 11.78125 0 L 10.09375 0 L 11.578125 -6.0625 L 6.0625 -6.0625 L 4.59375 0 L 2.890625 0 L 4.390625 -6.0625 L 1.078125 -6.0625 L 1.078125 -7.640625 L 4.765625 -7.640625 L 6.140625 -13.375 L 2.34375 -13.375 L 2.34375 -14.859375 L 6.515625 -14.859375 L 7.953125 -20.765625 L 9.65625 -20.765625 L 8.1875 -14.859375 L 13.71875 -14.859375 L 15.15625 -20.765625 L 16.84375 -20.765625 L 15.390625 -14.859375 L 18.78125 -14.859375 Z M 11.96875 -7.640625 L 13.34375 -13.375 L 7.8125 -13.375 L 6.4375 -7.640625 Z M 11.96875 -7.640625 "/></g></g></g><g fill="#fff2dc" fill-opacity="1"><g transform="translate(388.255662, 465.88956)"><g><path d="M 18.21875 -5.359375 C 18.21875 -4.578125 18.0625 -3.859375 17.75 -3.203125 C 17.4375 -2.546875 17.015625 -1.976562 16.484375 -1.5 C 15.960938 -1.03125 15.347656 -0.660156 14.640625 -0.390625 C 13.941406 -0.128906 13.195312 0 12.40625 0 L 2.609375 0 L 2.609375 -20.765625 L 12.609375 -20.765625 C 13.328125 -20.765625 13.976562 -20.609375 14.5625 -20.296875 C 15.144531 -19.984375 15.640625 -19.578125 16.046875 -19.078125 C 16.460938 -18.585938 16.78125 -18.023438 17 -17.390625 C 17.226562 -16.753906 17.34375 -16.113281 17.34375 -15.46875 C 17.34375 -14.414062 17.078125 -13.457031 16.546875 -12.59375 C 16.023438 -11.726562 15.296875 -11.078125 14.359375 -10.640625 C 15.546875 -10.296875 16.484375 -9.644531 17.171875 -8.6875 C 17.867188 -7.726562 18.21875 -6.617188 18.21875 -5.359375 Z M 16.171875 -5.703125 C 16.171875 -6.210938 16.082031 -6.703125 15.90625 -7.171875 C 15.738281 -7.648438 15.492188 -8.070312 15.171875 -8.4375 C 14.847656 -8.800781 14.46875 -9.09375 14.03125 -9.3125 C 13.59375 -9.539062 13.117188 -9.65625 12.609375 -9.65625 L 4.65625 -9.65625 L 4.65625 -1.78125 L 12.40625 -1.78125 C 12.925781 -1.78125 13.414062 -1.882812 13.875 -2.09375 C 14.332031 -2.3125 14.734375 -2.601562 15.078125 -2.96875 C 15.421875 -3.332031 15.6875 -3.75 15.875 -4.21875 C 16.070312 -4.695312 16.171875 -5.191406 16.171875 -5.703125 Z M 4.65625 -18.984375 L 4.65625 -11.3125 L 11.78125 -11.3125 C 12.289062 -11.3125 12.765625 -11.421875 13.203125 -11.640625 C 13.640625 -11.859375 14.015625 -12.140625 14.328125 -12.484375 C 14.640625 -12.835938 14.882812 -13.242188 15.0625 -13.703125 C 15.238281 -14.160156 15.328125 -14.644531 15.328125 -15.15625 C 15.328125 -15.675781 15.242188 -16.171875 15.078125 -16.640625 C 14.910156 -17.109375 14.675781 -17.515625 14.375 -17.859375 C 14.070312 -18.203125 13.710938 -18.472656 13.296875 -18.671875 C 12.890625 -18.878906 12.445312 -18.984375 11.96875 -18.984375 Z M 4.65625 -18.984375 "/></g></g></g><g fill="#fff2dc" fill-opacity="1"><g transform="translate(407.734684, 465.88956)"><g><path d="M 10.40625 3.71875 L 10.40625 -1.484375 L 0.671875 -1.484375 L 0.671875 -3.25 L 11.0625 -16.703125 L 12.40625 -16.703125 L 12.40625 -3.3125 L 14.96875 -3.3125 L 14.96875 -1.484375 L 12.40625 -1.484375 L 12.40625 3.71875 Z M 2.78125 -3.3125 L 10.625 -3.3125 L 10.625 -13.578125 Z M 2.78125 -3.3125 "/></g></g></g><g fill="#fff2dc" fill-opacity="1"><g transform="translate(423.703968, 465.88956)"><g><path d="M 10.40625 3.71875 L 10.40625 -1.484375 L 0.671875 -1.484375 L 0.671875 -3.25 L 11.0625 -16.703125 L 12.40625 -16.703125 L 12.40625 -3.3125 L 14.96875 -3.3125 L 14.96875 -1.484375 L 12.40625 -1.484375 L 12.40625 3.71875 Z M 2.78125 -3.3125 L 10.625 -3.3125 L 10.625 -13.578125 Z M 2.78125 -3.3125 "/></g></g></g><g fill="#fff2dc" fill-opacity="1"><g transform="translate(439.673252, 465.88956)"><g><path d="M 1.046875 -9.5625 C 1.046875 -10.5625 1.234375 -11.492188 1.609375 -12.359375 C 1.992188 -13.222656 2.519531 -13.976562 3.1875 -14.625 C 3.851562 -15.269531 4.632812 -15.773438 5.53125 -16.140625 C 6.425781 -16.515625 7.390625 -16.703125 8.421875 -16.703125 C 9.515625 -16.703125 10.519531 -16.5 11.4375 -16.09375 C 12.351562 -15.695312 13.132812 -15.128906 13.78125 -14.390625 C 14.4375 -13.648438 14.945312 -12.738281 15.3125 -11.65625 C 15.6875 -10.570312 15.875 -9.359375 15.875 -8.015625 C 15.875 -5.910156 15.6875 -4.070312 15.3125 -2.5 C 14.945312 -0.925781 14.425781 0.378906 13.75 1.421875 C 13.082031 2.460938 12.273438 3.234375 11.328125 3.734375 C 10.390625 4.242188 9.351562 4.5 8.21875 4.5 C 6.851562 4.5 5.617188 4.15625 4.515625 3.46875 C 3.410156 2.789062 2.578125 1.847656 2.015625 0.640625 L 3.3125 -0.53125 C 3.71875 0.46875 4.363281 1.265625 5.25 1.859375 C 6.132812 2.453125 7.125 2.75 8.21875 2.75 C 9.070312 2.75 9.847656 2.539062 10.546875 2.125 C 11.253906 1.71875 11.863281 1.128906 12.375 0.359375 C 12.882812 -0.410156 13.273438 -1.351562 13.546875 -2.46875 C 13.816406 -3.59375 13.960938 -4.875 13.984375 -6.3125 C 13.535156 -5.164062 12.785156 -4.25 11.734375 -3.5625 C 10.691406 -2.882812 9.507812 -2.546875 8.1875 -2.546875 C 7.195312 -2.546875 6.265625 -2.722656 5.390625 -3.078125 C 4.523438 -3.441406 3.769531 -3.941406 3.125 -4.578125 C 2.488281 -5.210938 1.984375 -5.957031 1.609375 -6.8125 C 1.234375 -7.675781 1.046875 -8.59375 1.046875 -9.5625 Z M 8.390625 -14.953125 C 7.648438 -14.953125 6.953125 -14.804688 6.296875 -14.515625 C 5.648438 -14.234375 5.078125 -13.847656 4.578125 -13.359375 C 4.078125 -12.878906 3.679688 -12.3125 3.390625 -11.65625 C 3.097656 -11 2.953125 -10.300781 2.953125 -9.5625 C 2.953125 -8.820312 3.097656 -8.125 3.390625 -7.46875 C 3.679688 -6.820312 4.078125 -6.253906 4.578125 -5.765625 C 5.078125 -5.273438 5.648438 -4.890625 6.296875 -4.609375 C 6.953125 -4.328125 7.648438 -4.1875 8.390625 -4.1875 C 9.128906 -4.1875 9.832031 -4.328125 10.5 -4.609375 C 11.164062 -4.890625 11.738281 -5.273438 12.21875 -5.765625 C 12.707031 -6.253906 13.09375 -6.820312 13.375 -7.46875 C 13.664062 -8.125 13.8125 -8.820312 13.8125 -9.5625 C 13.8125 -10.28125 13.664062 -10.96875 13.375 -11.625 C 13.09375 -12.28125 12.703125 -12.851562 12.203125 -13.34375 C 11.710938 -13.84375 11.140625 -14.234375 10.484375 -14.515625 C 9.828125 -14.804688 9.128906 -14.953125 8.390625 -14.953125 Z M 8.390625 -14.953125 "/></g></g></g><g fill="#fff2dc" fill-opacity="1"><g transform="translate(456.812451, 465.88956)"><g><path d="M 10.40625 3.71875 L 10.40625 -1.484375 L 0.671875 -1.484375 L 0.671875 -3.25 L 11.0625 -16.703125 L 12.40625 -16.703125 L 12.40625 -3.3125 L 14.96875 -3.3125 L 14.96875 -1.484375 L 12.40625 -1.484375 L 12.40625 3.71875 Z M 2.78125 -3.3125 L 10.625 -3.3125 L 10.625 -13.578125 Z M 2.78125 -3.3125 "/></g></g></g><g fill="#fff2dc" fill-opacity="1"><g transform="translate(472.781735, 465.88956)"><g><path d="M 1.046875 -9.5625 C 1.046875 -10.5625 1.234375 -11.492188 1.609375 -12.359375 C 1.992188 -13.222656 2.519531 -13.976562 3.1875 -14.625 C 3.851562 -15.269531 4.632812 -15.773438 5.53125 -16.140625 C 6.425781 -16.515625 7.390625 -16.703125 8.421875 -16.703125 C 9.515625 -16.703125 10.519531 -16.5 11.4375 -16.09375 C 12.351562 -15.695312 13.132812 -15.128906 13.78125 -14.390625 C 14.4375 -13.648438 14.945312 -12.738281 15.3125 -11.65625 C 15.6875 -10.570312 15.875 -9.359375 15.875 -8.015625 C 15.875 -5.910156 15.6875 -4.070312 15.3125 -2.5 C 14.945312 -0.925781 14.425781 0.378906 13.75 1.421875 C 13.082031 2.460938 12.273438 3.234375 11.328125 3.734375 C 10.390625 4.242188 9.351562 4.5 8.21875 4.5 C 6.851562 4.5 5.617188 4.15625 4.515625 3.46875 C 3.410156 2.789062 2.578125 1.847656 2.015625 0.640625 L 3.3125 -0.53125 C 3.71875 0.46875 4.363281 1.265625 5.25 1.859375 C 6.132812 2.453125 7.125 2.75 8.21875 2.75 C 9.070312 2.75 9.847656 2.539062 10.546875 2.125 C 11.253906 1.71875 11.863281 1.128906 12.375 0.359375 C 12.882812 -0.410156 13.273438 -1.351562 13.546875 -2.46875 C 13.816406 -3.59375 13.960938 -4.875 13.984375 -6.3125 C 13.535156 -5.164062 12.785156 -4.25 11.734375 -3.5625 C 10.691406 -2.882812 9.507812 -2.546875 8.1875 -2.546875 C 7.195312 -2.546875 6.265625 -2.722656 5.390625 -3.078125 C 4.523438 -3.441406 3.769531 -3.941406 3.125 -4.578125 C 2.488281 -5.210938 1.984375 -5.957031 1.609375 -6.8125 C 1.234375 -7.675781 1.046875 -8.59375 1.046875 -9.5625 Z M 8.390625 -14.953125 C 7.648438 -14.953125 6.953125 -14.804688 6.296875 -14.515625 C 5.648438 -14.234375 5.078125 -13.847656 4.578125 -13.359375 C 4.078125 -12.878906 3.679688 -12.3125 3.390625 -11.65625 C 3.097656 -11 2.953125 -10.300781 2.953125 -9.5625 C 2.953125 -8.820312 3.097656 -8.125 3.390625 -7.46875 C 3.679688 -6.820312 4.078125 -6.253906 4.578125 -5.765625 C 5.078125 -5.273438 5.648438 -4.890625 6.296875 -4.609375 C 6.953125 -4.328125 7.648438 -4.1875 8.390625 -4.1875 C 9.128906 -4.1875 9.832031 -4.328125 10.5 -4.609375 C 11.164062 -4.890625 11.738281 -5.273438 12.21875 -5.765625 C 12.707031 -6.253906 13.09375 -6.820312 13.375 -7.46875 C 13.664062 -8.125 13.8125 -8.820312 13.8125 -9.5625 C 13.8125 -10.28125 13.664062 -10.96875 13.375 -11.625 C 13.09375 -12.28125 12.703125 -12.851562 12.203125 -13.34375 C 11.710938 -13.84375 11.140625 -14.234375 10.484375 -14.515625 C 9.828125 -14.804688 9.128906 -14.953125 8.390625 -14.953125 Z M 8.390625 -14.953125 "/></g></g></g><g fill="#fff2dc" fill-opacity="1"><g transform="translate(527.451604, 465.88956)"><g><path d="M 18.78125 -13.375 L 15 -13.375 L 13.625 -7.640625 L 17.546875 -7.640625 L 17.546875 -6.0625 L 13.25 -6.0625 L 11.78125 0 L 10.09375 0 L 11.578125 -6.0625 L 6.0625 -6.0625 L 4.59375 0 L 2.890625 0 L 4.390625 -6.0625 L 1.078125 -6.0625 L 1.078125 -7.640625 L 4.765625 -7.640625 L 6.140625 -13.375 L 2.34375 -13.375 L 2.34375 -14.859375 L 6.515625 -14.859375 L 7.953125 -20.765625 L 9.65625 -20.765625 L 8.1875 -14.859375 L 13.71875 -14.859375 L 15.15625 -20.765625 L 16.84375 -20.765625 L 15.390625 -14.859375 L 18.78125 -14.859375 Z M 11.96875 -7.640625 L 13.34375 -13.375 L 7.8125 -13.375 L 6.4375 -7.640625 Z M 11.96875 -7.640625 "/></g></g></g><g fill="#fff2dc" fill-opacity="1"><g transform="translate(547.34009, 465.88956)"><g><path d="M 16.34375 -6.84375 C 16.34375 -5.851562 16.148438 -4.921875 15.765625 -4.046875 C 15.390625 -3.179688 14.867188 -2.425781 14.203125 -1.78125 C 13.546875 -1.132812 12.769531 -0.625 11.875 -0.25 C 10.976562 0.113281 10.015625 0.296875 8.984375 0.296875 C 7.890625 0.296875 6.882812 0.0976562 5.96875 -0.296875 C 5.050781 -0.703125 4.265625 -1.273438 3.609375 -2.015625 C 2.953125 -2.753906 2.4375 -3.664062 2.0625 -4.75 C 1.695312 -5.832031 1.515625 -7.046875 1.515625 -8.390625 C 1.515625 -10.492188 1.695312 -12.332031 2.0625 -13.90625 C 2.4375 -15.476562 2.960938 -16.785156 3.640625 -17.828125 C 4.316406 -18.867188 5.117188 -19.640625 6.046875 -20.140625 C 6.984375 -20.648438 8.03125 -20.90625 9.1875 -20.90625 C 10.570312 -20.90625 11.804688 -20.5625 12.890625 -19.875 C 13.984375 -19.195312 14.816406 -18.253906 15.390625 -17.046875 L 14.09375 -15.875 C 13.6875 -16.875 13.046875 -17.671875 12.171875 -18.265625 C 11.296875 -18.859375 10.300781 -19.15625 9.1875 -19.15625 C 8.320312 -19.15625 7.539062 -18.953125 6.84375 -18.546875 C 6.144531 -18.140625 5.546875 -17.550781 5.046875 -16.78125 C 4.546875 -16.007812 4.15625 -15.054688 3.875 -13.921875 C 3.59375 -12.785156 3.453125 -11.507812 3.453125 -10.09375 C 3.878906 -11.238281 4.613281 -12.148438 5.65625 -12.828125 C 6.695312 -13.515625 7.882812 -13.859375 9.21875 -13.859375 C 10.207031 -13.859375 11.132812 -13.675781 12 -13.3125 C 12.875 -12.957031 13.628906 -12.460938 14.265625 -11.828125 C 14.910156 -11.191406 15.414062 -10.445312 15.78125 -9.59375 C 16.15625 -8.738281 16.34375 -7.820312 16.34375 -6.84375 Z M 9.03125 -1.46875 C 9.78125 -1.46875 10.476562 -1.609375 11.125 -1.890625 C 11.78125 -2.171875 12.351562 -2.550781 12.84375 -3.03125 C 13.34375 -3.519531 13.734375 -4.09375 14.015625 -4.75 C 14.304688 -5.40625 14.453125 -6.101562 14.453125 -6.84375 C 14.453125 -7.582031 14.304688 -8.28125 14.015625 -8.9375 C 13.722656 -9.59375 13.328125 -10.160156 12.828125 -10.640625 C 12.328125 -11.128906 11.75 -11.515625 11.09375 -11.796875 C 10.445312 -12.078125 9.753906 -12.21875 9.015625 -12.21875 C 8.265625 -12.21875 7.5625 -12.078125 6.90625 -11.796875 C 6.257812 -11.515625 5.6875 -11.128906 5.1875 -10.640625 C 4.695312 -10.160156 4.304688 -9.59375 4.015625 -8.9375 C 3.734375 -8.28125 3.59375 -7.582031 3.59375 -6.84375 C 3.59375 -6.101562 3.738281 -5.410156 4.03125 -4.765625 C 4.320312 -4.117188 4.71875 -3.546875 5.21875 -3.046875 C 5.71875 -2.554688 6.289062 -2.171875 6.9375 -1.890625 C 7.59375 -1.609375 8.289062 -1.46875 9.03125 -1.46875 Z M 9.03125 -1.46875 "/></g></g></g><g fill="#fff2dc" fill-opacity="1"><g transform="translate(564.9765, 465.88956)"><g><path d="M 12.203125 -15.203125 L 1 -15.203125 L 1 -17.046875 L 15.359375 -17.046875 L 4.859375 3.71875 L 2.578125 3.71875 Z M 12.203125 -15.203125 "/></g></g></g><g fill="#fff2dc" fill-opacity="1"><g transform="translate(580.62406, 465.88956)"><g><path d="M 1.046875 -9.5625 C 1.046875 -10.5625 1.234375 -11.492188 1.609375 -12.359375 C 1.992188 -13.222656 2.519531 -13.976562 3.1875 -14.625 C 3.851562 -15.269531 4.632812 -15.773438 5.53125 -16.140625 C 6.425781 -16.515625 7.390625 -16.703125 8.421875 -16.703125 C 9.515625 -16.703125 10.519531 -16.5 11.4375 -16.09375 C 12.351562 -15.695312 13.132812 -15.128906 13.78125 -14.390625 C 14.4375 -13.648438 14.945312 -12.738281 15.3125 -11.65625 C 15.6875 -10.570312 15.875 -9.359375 15.875 -8.015625 C 15.875 -5.910156 15.6875 -4.070312 15.3125 -2.5 C 14.945312 -0.925781 14.425781 0.378906 13.75 1.421875 C 13.082031 2.460938 12.273438 3.234375 11.328125 3.734375 C 10.390625 4.242188 9.351562 4.5 8.21875 4.5 C 6.851562 4.5 5.617188 4.15625 4.515625 3.46875 C 3.410156 2.789062 2.578125 1.847656 2.015625 0.640625 L 3.3125 -0.53125 C 3.71875 0.46875 4.363281 1.265625 5.25 1.859375 C 6.132812 2.453125 7.125 2.75 8.21875 2.75 C 9.070312 2.75 9.847656 2.539062 10.546875 2.125 C 11.253906 1.71875 11.863281 1.128906 12.375 0.359375 C 12.882812 -0.410156 13.273438 -1.351562 13.546875 -2.46875 C 13.816406 -3.59375 13.960938 -4.875 13.984375 -6.3125 C 13.535156 -5.164062 12.785156 -4.25 11.734375 -3.5625 C 10.691406 -2.882812 9.507812 -2.546875 8.1875 -2.546875 C 7.195312 -2.546875 6.265625 -2.722656 5.390625 -3.078125 C 4.523438 -3.441406 3.769531 -3.941406 3.125 -4.578125 C 2.488281 -5.210938 1.984375 -5.957031 1.609375 -6.8125 C 1.234375 -7.675781 1.046875 -8.59375 1.046875 -9.5625 Z M 8.390625 -14.953125 C 7.648438 -14.953125 6.953125 -14.804688 6.296875 -14.515625 C 5.648438 -14.234375 5.078125 -13.847656 4.578125 -13.359375 C 4.078125 -12.878906 3.679688 -12.3125 3.390625 -11.65625 C 3.097656 -11 2.953125 -10.300781 2.953125 -9.5625 C 2.953125 -8.820312 3.097656 -8.125 3.390625 -7.46875 C 3.679688 -6.820312 4.078125 -6.253906 4.578125 -5.765625 C 5.078125 -5.273438 5.648438 -4.890625 6.296875 -4.609375 C 6.953125 -4.328125 7.648438 -4.1875 8.390625 -4.1875 C 9.128906 -4.1875 9.832031 -4.328125 10.5 -4.609375 C 11.164062 -4.890625 11.738281 -5.273438 12.21875 -5.765625 C 12.707031 -6.253906 13.09375 -6.820312 13.375 -7.46875 C 13.664062 -8.125 13.8125 -8.820312 13.8125 -9.5625 C 13.8125 -10.28125 13.664062 -10.96875 13.375 -11.625 C 13.09375 -12.28125 12.703125 -12.851562 12.203125 -13.34375 C 11.710938 -13.84375 11.140625 -14.234375 10.484375 -14.515625 C 9.828125 -14.804688 9.128906 -14.953125 8.390625 -14.953125 Z M 8.390625 -14.953125 "/></g></g></g><g fill="#fff2dc" fill-opacity="1"><g transform="translate(597.763259, 465.88956)"><g><path d="M 1.28125 0 C 1.28125 -0.664062 1.335938 -1.332031 1.453125 -2 C 1.578125 -2.675781 1.804688 -3.34375 2.140625 -4 C 2.484375 -4.664062 2.972656 -5.304688 3.609375 -5.921875 C 4.242188 -6.535156 5.085938 -7.113281 6.140625 -7.65625 C 6.703125 -7.957031 7.289062 -8.25 7.90625 -8.53125 C 8.519531 -8.8125 9.085938 -9.125 9.609375 -9.46875 C 10.128906 -9.820312 10.550781 -10.21875 10.875 -10.65625 C 11.207031 -11.09375 11.375 -11.609375 11.375 -12.203125 C 11.375 -12.566406 11.289062 -12.925781 11.125 -13.28125 C 10.957031 -13.644531 10.710938 -13.96875 10.390625 -14.25 C 10.078125 -14.539062 9.679688 -14.769531 9.203125 -14.9375 C 8.722656 -15.113281 8.160156 -15.203125 7.515625 -15.203125 C 6.867188 -15.203125 6.289062 -15.109375 5.78125 -14.921875 C 5.28125 -14.742188 4.835938 -14.523438 4.453125 -14.265625 C 4.078125 -14.015625 3.753906 -13.75 3.484375 -13.46875 C 3.210938 -13.1875 3.003906 -12.957031 2.859375 -12.78125 L 1.546875 -14.21875 C 1.660156 -14.332031 1.882812 -14.546875 2.21875 -14.859375 C 2.550781 -15.171875 2.984375 -15.484375 3.515625 -15.796875 C 4.054688 -16.109375 4.6875 -16.382812 5.40625 -16.625 C 6.132812 -16.875 6.945312 -17 7.84375 -17 C 8.738281 -17 9.535156 -16.875 10.234375 -16.625 C 10.941406 -16.382812 11.535156 -16.046875 12.015625 -15.609375 C 12.503906 -15.179688 12.875 -14.691406 13.125 -14.140625 C 13.382812 -13.585938 13.515625 -13.007812 13.515625 -12.40625 C 13.515625 -11.601562 13.335938 -10.910156 12.984375 -10.328125 C 12.628906 -9.742188 12.191406 -9.234375 11.671875 -8.796875 C 11.160156 -8.367188 10.613281 -8.003906 10.03125 -7.703125 C 9.445312 -7.398438 8.921875 -7.144531 8.453125 -6.9375 C 7.828125 -6.65625 7.21875 -6.34375 6.625 -6 C 6.03125 -5.664062 5.5 -5.289062 5.03125 -4.875 C 4.5625 -4.46875 4.175781 -4.007812 3.875 -3.5 C 3.570312 -3 3.421875 -2.4375 3.421875 -1.8125 L 13.828125 -1.8125 L 13.828125 0 Z M 1.28125 0 "/></g></g></g><g fill="#fff2dc" fill-opacity="1"><g transform="translate(613.001349, 465.88956)"><g><path d="M 10.03125 -6.90625 C 11.320312 -6.6875 12.351562 -6.097656 13.125 -5.140625 C 13.894531 -4.191406 14.28125 -3.015625 14.28125 -1.609375 C 14.28125 -0.734375 14.117188 0.0664062 13.796875 0.796875 C 13.472656 1.535156 13.015625 2.160156 12.421875 2.671875 C 11.828125 3.191406 11.113281 3.59375 10.28125 3.875 C 9.445312 4.15625 8.523438 4.296875 7.515625 4.296875 C 6.035156 4.296875 4.738281 4 3.625 3.40625 C 2.507812 2.8125 1.671875 1.988281 1.109375 0.9375 L 2.484375 -0.328125 C 2.890625 0.535156 3.507812 1.21875 4.34375 1.71875 C 5.1875 2.226562 6.242188 2.484375 7.515625 2.484375 C 8.984375 2.484375 10.132812 2.125 10.96875 1.40625 C 11.800781 0.695312 12.21875 -0.316406 12.21875 -1.640625 C 12.21875 -2.984375 11.78125 -4.046875 10.90625 -4.828125 C 10.03125 -5.609375 8.765625 -6 7.109375 -6 L 6.375 -6 L 6.375 -7.6875 L 7.171875 -7.6875 C 8.671875 -7.6875 9.816406 -8.03125 10.609375 -8.71875 C 11.410156 -9.414062 11.8125 -10.320312 11.8125 -11.4375 C 11.8125 -12.019531 11.703125 -12.535156 11.484375 -12.984375 C 11.273438 -13.429688 10.976562 -13.804688 10.59375 -14.109375 C 10.21875 -14.410156 9.769531 -14.640625 9.25 -14.796875 C 8.738281 -14.953125 8.179688 -15.03125 7.578125 -15.03125 C 6.460938 -15.03125 5.476562 -14.78125 4.625 -14.28125 C 3.78125 -13.789062 3.144531 -13.101562 2.71875 -12.21875 L 1.4375 -13.453125 C 1.664062 -13.960938 1.992188 -14.425781 2.421875 -14.84375 C 2.859375 -15.257812 3.347656 -15.613281 3.890625 -15.90625 C 4.429688 -16.195312 5.035156 -16.425781 5.703125 -16.59375 C 6.367188 -16.757812 7.050781 -16.84375 7.75 -16.84375 C 8.644531 -16.84375 9.46875 -16.71875 10.21875 -16.46875 C 10.96875 -16.21875 11.613281 -15.863281 12.15625 -15.40625 C 12.707031 -14.945312 13.132812 -14.394531 13.4375 -13.75 C 13.738281 -13.101562 13.890625 -12.390625 13.890625 -11.609375 C 13.890625 -11.023438 13.800781 -10.460938 13.625 -9.921875 C 13.457031 -9.390625 13.207031 -8.914062 12.875 -8.5 C 12.539062 -8.082031 12.132812 -7.726562 11.65625 -7.4375 C 11.175781 -7.15625 10.632812 -6.976562 10.03125 -6.90625 Z M 10.03125 -6.90625 "/></g></g></g><g fill="#fff2dc" fill-opacity="1"><g transform="translate(628.619665, 465.88956)"><g><path d="M 16.34375 -6.84375 C 16.34375 -5.851562 16.148438 -4.921875 15.765625 -4.046875 C 15.390625 -3.179688 14.867188 -2.425781 14.203125 -1.78125 C 13.546875 -1.132812 12.769531 -0.625 11.875 -0.25 C 10.976562 0.113281 10.015625 0.296875 8.984375 0.296875 C 7.890625 0.296875 6.882812 0.0976562 5.96875 -0.296875 C 5.050781 -0.703125 4.265625 -1.273438 3.609375 -2.015625 C 2.953125 -2.753906 2.4375 -3.664062 2.0625 -4.75 C 1.695312 -5.832031 1.515625 -7.046875 1.515625 -8.390625 C 1.515625 -10.492188 1.695312 -12.332031 2.0625 -13.90625 C 2.4375 -15.476562 2.960938 -16.785156 3.640625 -17.828125 C 4.316406 -18.867188 5.117188 -19.640625 6.046875 -20.140625 C 6.984375 -20.648438 8.03125 -20.90625 9.1875 -20.90625 C 10.570312 -20.90625 11.804688 -20.5625 12.890625 -19.875 C 13.984375 -19.195312 14.816406 -18.253906 15.390625 -17.046875 L 14.09375 -15.875 C 13.6875 -16.875 13.046875 -17.671875 12.171875 -18.265625 C 11.296875 -18.859375 10.300781 -19.15625 9.1875 -19.15625 C 8.320312 -19.15625 7.539062 -18.953125 6.84375 -18.546875 C 6.144531 -18.140625 5.546875 -17.550781 5.046875 -16.78125 C 4.546875 -16.007812 4.15625 -15.054688 3.875 -13.921875 C 3.59375 -12.785156 3.453125 -11.507812 3.453125 -10.09375 C 3.878906 -11.238281 4.613281 -12.148438 5.65625 -12.828125 C 6.695312 -13.515625 7.882812 -13.859375 9.21875 -13.859375 C 10.207031 -13.859375 11.132812 -13.675781 12 -13.3125 C 12.875 -12.957031 13.628906 -12.460938 14.265625 -11.828125 C 14.910156 -11.191406 15.414062 -10.445312 15.78125 -9.59375 C 16.15625 -8.738281 16.34375 -7.820312 16.34375 -6.84375 Z M 9.03125 -1.46875 C 9.78125 -1.46875 10.476562 -1.609375 11.125 -1.890625 C 11.78125 -2.171875 12.351562 -2.550781 12.84375 -3.03125 C 13.34375 -3.519531 13.734375 -4.09375 14.015625 -4.75 C 14.304688 -5.40625 14.453125 -6.101562 14.453125 -6.84375 C 14.453125 -7.582031 14.304688 -8.28125 14.015625 -8.9375 C 13.722656 -9.59375 13.328125 -10.160156 12.828125 -10.640625 C 12.328125 -11.128906 11.75 -11.515625 11.09375 -11.796875 C 10.445312 -12.078125 9.753906 -12.21875 9.015625 -12.21875 C 8.265625 -12.21875 7.5625 -12.078125 6.90625 -11.796875 C 6.257812 -11.515625 5.6875 -11.128906 5.1875 -10.640625 C 4.695312 -10.160156 4.304688 -9.59375 4.015625 -8.9375 C 3.734375 -8.28125 3.59375 -7.582031 3.59375 -6.84375 C 3.59375 -6.101562 3.738281 -5.410156 4.03125 -4.765625 C 4.320312 -4.117188 4.71875 -3.546875 5.21875 -3.046875 C 5.71875 -2.554688 6.289062 -2.171875 6.9375 -1.890625 C 7.59375 -1.609375 8.289062 -1.46875 9.03125 -1.46875 Z M 9.03125 -1.46875 "/></g></g></g><g fill="#fff2dc" fill-opacity="1"><g transform="translate(685.232852, 465.88956)"><g><path d="M 18.78125 -13.375 L 15 -13.375 L 13.625 -7.640625 L 17.546875 -7.640625 L 17.546875 -6.0625 L 13.25 -6.0625 L 11.78125 0 L 10.09375 0 L 11.578125 -6.0625 L 6.0625 -6.0625 L 4.59375 0 L 2.890625 0 L 4.390625 -6.0625 L 1.078125 -6.0625 L 1.078125 -7.640625 L 4.765625 -7.640625 L 6.140625 -13.375 L 2.34375 -13.375 L 2.34375 -14.859375 L 6.515625 -14.859375 L 7.953125 -20.765625 L 9.65625 -20.765625 L 8.1875 -14.859375 L 13.71875 -14.859375 L 15.15625 -20.765625 L 16.84375 -20.765625 L 15.390625 -14.859375 L 18.78125 -14.859375 Z M 11.96875 -7.640625 L 13.34375 -13.375 L 7.8125 -13.375 L 6.4375 -7.640625 Z M 11.96875 -7.640625 "/></g></g></g><g fill="#fff2dc" fill-opacity="1"><g transform="translate(705.121338, 465.88956)"><g><path d="M 2.609375 0 L 2.609375 -20.765625 L 16.234375 -20.765625 L 16.234375 -18.953125 L 4.65625 -18.953125 L 4.65625 -11.3125 L 14.421875 -11.3125 L 14.421875 -9.625 L 4.65625 -9.625 L 4.65625 0 Z M 2.609375 0 "/></g></g></g><g fill="#fff2dc" fill-opacity="1"><g transform="translate(722.348278, 465.88956)"><g><path d="M 2.609375 0 L 2.609375 -20.765625 L 16.234375 -20.765625 L 16.234375 -18.953125 L 4.65625 -18.953125 L 4.65625 -11.3125 L 14.421875 -11.3125 L 14.421875 -9.625 L 4.65625 -9.625 L 4.65625 0 Z M 2.609375 0 "/></g></g></g><g fill="#fff2dc" fill-opacity="1"><g transform="translate(739.575217, 465.88956)"><g><path d="M 1.046875 -9.5625 C 1.046875 -10.5625 1.234375 -11.492188 1.609375 -12.359375 C 1.992188 -13.222656 2.519531 -13.976562 3.1875 -14.625 C 3.851562 -15.269531 4.632812 -15.773438 5.53125 -16.140625 C 6.425781 -16.515625 7.390625 -16.703125 8.421875 -16.703125 C 9.515625 -16.703125 10.519531 -16.5 11.4375 -16.09375 C 12.351562 -15.695312 13.132812 -15.128906 13.78125 -14.390625 C 14.4375 -13.648438 14.945312 -12.738281 15.3125 -11.65625 C 15.6875 -10.570312 15.875 -9.359375 15.875 -8.015625 C 15.875 -5.910156 15.6875 -4.070312 15.3125 -2.5 C 14.945312 -0.925781 14.425781 0.378906 13.75 1.421875 C 13.082031 2.460938 12.273438 3.234375 11.328125 3.734375 C 10.390625 4.242188 9.351562 4.5 8.21875 4.5 C 6.851562 4.5 5.617188 4.15625 4.515625 3.46875 C 3.410156 2.789062 2.578125 1.847656 2.015625 0.640625 L 3.3125 -0.53125 C 3.71875 0.46875 4.363281 1.265625 5.25 1.859375 C 6.132812 2.453125 7.125 2.75 8.21875 2.75 C 9.070312 2.75 9.847656 2.539062 10.546875 2.125 C 11.253906 1.71875 11.863281 1.128906 12.375 0.359375 C 12.882812 -0.410156 13.273438 -1.351562 13.546875 -2.46875 C 13.816406 -3.59375 13.960938 -4.875 13.984375 -6.3125 C 13.535156 -5.164062 12.785156 -4.25 11.734375 -3.5625 C 10.691406 -2.882812 9.507812 -2.546875 8.1875 -2.546875 C 7.195312 -2.546875 6.265625 -2.722656 5.390625 -3.078125 C 4.523438 -3.441406 3.769531 -3.941406 3.125 -4.578125 C 2.488281 -5.210938 1.984375 -5.957031 1.609375 -6.8125 C 1.234375 -7.675781 1.046875 -8.59375 1.046875 -9.5625 Z M 8.390625 -14.953125 C 7.648438 -14.953125 6.953125 -14.804688 6.296875 -14.515625 C 5.648438 -14.234375 5.078125 -13.847656 4.578125 -13.359375 C 4.078125 -12.878906 3.679688 -12.3125 3.390625 -11.65625 C 3.097656 -11 2.953125 -10.300781 2.953125 -9.5625 C 2.953125 -8.820312 3.097656 -8.125 3.390625 -7.46875 C 3.679688 -6.820312 4.078125 -6.253906 4.578125 -5.765625 C 5.078125 -5.273438 5.648438 -4.890625 6.296875 -4.609375 C 6.953125 -4.328125 7.648438 -4.1875 8.390625 -4.1875 C 9.128906 -4.1875 9.832031 -4.328125 10.5 -4.609375 C 11.164062 -4.890625 11.738281 -5.273438 12.21875 -5.765625 C 12.707031 -6.253906 13.09375 -6.820312 13.375 -7.46875 C 13.664062 -8.125 13.8125 -8.820312 13.8125 -9.5625 C 13.8125 -10.28125 13.664062 -10.96875 13.375 -11.625 C 13.09375 -12.28125 12.703125 -12.851562 12.203125 -13.34375 C 11.710938 -13.84375 11.140625 -14.234375 10.484375 -14.515625 C 9.828125 -14.804688 9.128906 -14.953125 8.390625 -14.953125 Z M 8.390625 -14.953125 "/></g></g></g><g fill="#fff2dc" fill-opacity="1"><g transform="translate(756.714416, 465.88956)"><g><path d="M 1.046875 -9.5625 C 1.046875 -10.5625 1.234375 -11.492188 1.609375 -12.359375 C 1.992188 -13.222656 2.519531 -13.976562 3.1875 -14.625 C 3.851562 -15.269531 4.632812 -15.773438 5.53125 -16.140625 C 6.425781 -16.515625 7.390625 -16.703125 8.421875 -16.703125 C 9.515625 -16.703125 10.519531 -16.5 11.4375 -16.09375 C 12.351562 -15.695312 13.132812 -15.128906 13.78125 -14.390625 C 14.4375 -13.648438 14.945312 -12.738281 15.3125 -11.65625 C 15.6875 -10.570312 15.875 -9.359375 15.875 -8.015625 C 15.875 -5.910156 15.6875 -4.070312 15.3125 -2.5 C 14.945312 -0.925781 14.425781 0.378906 13.75 1.421875 C 13.082031 2.460938 12.273438 3.234375 11.328125 3.734375 C 10.390625 4.242188 9.351562 4.5 8.21875 4.5 C 6.851562 4.5 5.617188 4.15625 4.515625 3.46875 C 3.410156 2.789062 2.578125 1.847656 2.015625 0.640625 L 3.3125 -0.53125 C 3.71875 0.46875 4.363281 1.265625 5.25 1.859375 C 6.132812 2.453125 7.125 2.75 8.21875 2.75 C 9.070312 2.75 9.847656 2.539062 10.546875 2.125 C 11.253906 1.71875 11.863281 1.128906 12.375 0.359375 C 12.882812 -0.410156 13.273438 -1.351562 13.546875 -2.46875 C 13.816406 -3.59375 13.960938 -4.875 13.984375 -6.3125 C 13.535156 -5.164062 12.785156 -4.25 11.734375 -3.5625 C 10.691406 -2.882812 9.507812 -2.546875 8.1875 -2.546875 C 7.195312 -2.546875 6.265625 -2.722656 5.390625 -3.078125 C 4.523438 -3.441406 3.769531 -3.941406 3.125 -4.578125 C 2.488281 -5.210938 1.984375 -5.957031 1.609375 -6.8125 C 1.234375 -7.675781 1.046875 -8.59375 1.046875 -9.5625 Z M 8.390625 -14.953125 C 7.648438 -14.953125 6.953125 -14.804688 6.296875 -14.515625 C 5.648438 -14.234375 5.078125 -13.847656 4.578125 -13.359375 C 4.078125 -12.878906 3.679688 -12.3125 3.390625 -11.65625 C 3.097656 -11 2.953125 -10.300781 2.953125 -9.5625 C 2.953125 -8.820312 3.097656 -8.125 3.390625 -7.46875 C 3.679688 -6.820312 4.078125 -6.253906 4.578125 -5.765625 C 5.078125 -5.273438 5.648438 -4.890625 6.296875 -4.609375 C 6.953125 -4.328125 7.648438 -4.1875 8.390625 -4.1875 C 9.128906 -4.1875 9.832031 -4.328125 10.5 -4.609375 C 11.164062 -4.890625 11.738281 -5.273438 12.21875 -5.765625 C 12.707031 -6.253906 13.09375 -6.820312 13.375 -7.46875 C 13.664062 -8.125 13.8125 -8.820312 13.8125 -9.5625 C 13.8125 -10.28125 13.664062 -10.96875 13.375 -11.625 C 13.09375 -12.28125 12.703125 -12.851562 12.203125 -13.34375 C 11.710938 -13.84375 11.140625 -14.234375 10.484375 -14.515625 C 9.828125 -14.804688 9.128906 -14.953125 8.390625 -14.953125 Z M 8.390625 -14.953125 "/></g></g></g><g fill="#fff2dc" fill-opacity="1"><g transform="translate(773.853615, 465.88956)"><g><path d="M 16.296875 -8.5625 C 16.296875 -7.28125 16.109375 -6.097656 15.734375 -5.015625 C 15.367188 -3.929688 14.859375 -2.992188 14.203125 -2.203125 C 13.546875 -1.421875 12.769531 -0.804688 11.875 -0.359375 C 10.976562 0.078125 10.003906 0.296875 8.953125 0.296875 C 7.898438 0.296875 6.925781 0.078125 6.03125 -0.359375 C 5.132812 -0.804688 4.359375 -1.421875 3.703125 -2.203125 C 3.046875 -2.992188 2.53125 -3.929688 2.15625 -5.015625 C 1.789062 -6.097656 1.609375 -7.28125 1.609375 -8.5625 C 1.609375 -9.851562 1.789062 -11.039062 2.15625 -12.125 C 2.53125 -13.207031 3.046875 -14.140625 3.703125 -14.921875 C 4.359375 -15.710938 5.132812 -16.332031 6.03125 -16.78125 C 6.925781 -17.238281 7.898438 -17.46875 8.953125 -17.46875 C 10.003906 -17.46875 10.976562 -17.238281 11.875 -16.78125 C 12.769531 -16.332031 13.546875 -15.710938 14.203125 -14.921875 C 14.859375 -14.140625 15.367188 -13.207031 15.734375 -12.125 C 16.109375 -11.039062 16.296875 -9.851562 16.296875 -8.5625 Z M 14.28125 -8.5625 C 14.28125 -9.625 14.144531 -10.582031 13.875 -11.4375 C 13.613281 -12.289062 13.25 -13.023438 12.78125 -13.640625 C 12.3125 -14.253906 11.75 -14.734375 11.09375 -15.078125 C 10.445312 -15.421875 9.734375 -15.59375 8.953125 -15.59375 C 8.148438 -15.59375 7.421875 -15.421875 6.765625 -15.078125 C 6.117188 -14.734375 5.5625 -14.253906 5.09375 -13.640625 C 4.625 -13.023438 4.253906 -12.289062 3.984375 -11.4375 C 3.722656 -10.582031 3.59375 -9.625 3.59375 -8.5625 C 3.59375 -7.507812 3.722656 -6.554688 3.984375 -5.703125 C 4.253906 -4.847656 4.625 -4.113281 5.09375 -3.5 C 5.5625 -2.882812 6.117188 -2.410156 6.765625 -2.078125 C 7.421875 -1.742188 8.148438 -1.578125 8.953125 -1.578125 C 9.734375 -1.578125 10.445312 -1.742188 11.09375 -2.078125 C 11.75 -2.410156 12.3125 -2.882812 12.78125 -3.5 C 13.25 -4.113281 13.613281 -4.847656 13.875 -5.703125 C 14.144531 -6.554688 14.28125 -7.507812 14.28125 -8.5625 Z M 14.28125 -8.5625 "/></g></g></g><g fill="#fff2dc" fill-opacity="1"><g transform="translate(791.753252, 465.88956)"><g><path d="M 11.875 -1.8125 L 11.875 0 L 1.953125 0 L 1.953125 -1.8125 L 6.109375 -1.8125 L 6.109375 -14.328125 C 5.953125 -14.097656 5.679688 -13.84375 5.296875 -13.5625 C 4.921875 -13.289062 4.503906 -13.035156 4.046875 -12.796875 C 3.585938 -12.566406 3.113281 -12.375 2.625 -12.21875 C 2.144531 -12.070312 1.71875 -12 1.34375 -12 L 1.34375 -13.921875 C 1.789062 -13.921875 2.28125 -14.046875 2.8125 -14.296875 C 3.351562 -14.554688 3.863281 -14.847656 4.34375 -15.171875 C 4.820312 -15.503906 5.226562 -15.816406 5.5625 -16.109375 C 5.894531 -16.410156 6.078125 -16.609375 6.109375 -16.703125 L 8.15625 -16.703125 L 8.15625 -1.8125 Z M 11.875 -1.8125 "/></g></g></g><g fill="#679236" fill-opacity="1"><g transform="translate(505.958338, 440.226561)"><g><path d="M 38.15625 1 C 30.25 1 24.601562 -2.054688 21.21875 -8.171875 L 21.21875 0 L 4.78125 0 L 4.78125 -72.71875 L 23.703125 -72.71875 L 23.703125 -44.625 C 25.234375 -47.476562 27.390625 -49.648438 30.171875 -51.140625 C 32.960938 -52.640625 36.253906 -53.390625 40.046875 -53.390625 C 43.234375 -53.390625 46.203125 -52.691406 48.953125 -51.296875 C 51.710938 -49.898438 54.085938 -47.988281 56.078125 -45.5625 C 58.066406 -43.144531 59.625 -40.257812 60.75 -36.90625 C 61.882812 -33.550781 62.453125 -29.914062 62.453125 -26 C 62.453125 -22.082031 61.835938 -18.476562 60.609375 -15.1875 C 59.378906 -11.90625 57.6875 -9.066406 55.53125 -6.671875 C 53.375 -4.285156 50.800781 -2.410156 47.8125 -1.046875 C 44.820312 0.316406 41.601562 1 38.15625 1 Z M 32.671875 -14.9375 C 35.796875 -14.9375 38.300781 -15.929688 40.1875 -17.921875 C 42.082031 -19.921875 43.03125 -22.582031 43.03125 -25.90625 C 43.03125 -27.5 42.78125 -28.988281 42.28125 -30.375 C 41.78125 -31.769531 41.113281 -33 40.28125 -34.0625 C 39.457031 -35.125 38.460938 -35.953125 37.296875 -36.546875 C 36.140625 -37.148438 34.863281 -37.453125 33.46875 -37.453125 C 31.476562 -37.453125 29.585938 -36.738281 27.796875 -35.3125 C 26.003906 -33.882812 24.640625 -32.007812 23.703125 -29.6875 L 23.703125 -20.328125 C 26.160156 -16.734375 29.148438 -14.9375 32.671875 -14.9375 Z M 32.671875 -14.9375 "/></g></g></g><g fill="#a7d274" fill-opacity="1"><g transform="translate(570.399744, 440.226561)"><g><path d="M 36.0625 0.59375 C 31.007812 0.59375 26.40625 -0.429688 22.25 -2.484375 C 18.101562 -4.546875 14.550781 -7.253906 11.59375 -10.609375 C 8.644531 -13.960938 6.359375 -17.796875 4.734375 -22.109375 C 3.109375 -26.429688 2.296875 -30.882812 2.296875 -35.46875 C 2.296875 -40.113281 3.140625 -44.59375 4.828125 -48.90625 C 6.523438 -53.226562 8.898438 -57.03125 11.953125 -60.3125 C 15.003906 -63.601562 18.601562 -66.226562 22.75 -68.1875 C 26.90625 -70.144531 31.472656 -71.125 36.453125 -71.125 C 41.503906 -71.125 46.101562 -70.09375 50.25 -68.03125 C 54.40625 -65.976562 57.957031 -63.253906 60.90625 -59.859375 C 63.863281 -56.472656 66.140625 -52.625 67.734375 -48.3125 C 69.328125 -44 70.125 -39.582031 70.125 -35.0625 C 70.125 -30.414062 69.273438 -25.945312 67.578125 -21.65625 C 65.890625 -17.375 63.550781 -13.585938 60.5625 -10.296875 C 57.570312 -7.015625 53.984375 -4.378906 49.796875 -2.390625 C 45.617188 -0.398438 41.039062 0.59375 36.0625 0.59375 Z M 22.015625 -35.265625 C 22.015625 -32.867188 22.296875 -30.554688 22.859375 -28.328125 C 23.421875 -26.109375 24.300781 -24.132812 25.5 -22.40625 C 26.695312 -20.6875 28.191406 -19.296875 29.984375 -18.234375 C 31.773438 -17.171875 33.867188 -16.640625 36.265625 -16.640625 C 38.710938 -16.640625 40.832031 -17.1875 42.625 -18.28125 C 44.425781 -19.375 45.890625 -20.800781 47.015625 -22.5625 C 48.140625 -24.320312 48.984375 -26.328125 49.546875 -28.578125 C 50.117188 -30.835938 50.40625 -33.132812 50.40625 -35.46875 C 50.40625 -37.851562 50.101562 -40.15625 49.5 -42.375 C 48.90625 -44.601562 48.023438 -46.5625 46.859375 -48.25 C 45.703125 -49.945312 44.226562 -51.3125 42.4375 -52.34375 C 40.644531 -53.375 38.550781 -53.890625 36.15625 -53.890625 C 33.695312 -53.890625 31.585938 -53.359375 29.828125 -52.296875 C 28.066406 -51.234375 26.601562 -49.820312 25.4375 -48.0625 C 24.28125 -46.300781 23.421875 -44.304688 22.859375 -42.078125 C 22.296875 -39.859375 22.015625 -37.585938 22.015625 -35.265625 Z M 22.015625 -35.265625 "/></g></g></g><g fill="#ff9901" fill-opacity="1"><g transform="translate(642.804037, 440.226561)"><g><path d="M 36.0625 0.59375 C 31.007812 0.59375 26.40625 -0.429688 22.25 -2.484375 C 18.101562 -4.546875 14.550781 -7.253906 11.59375 -10.609375 C 8.644531 -13.960938 6.359375 -17.796875 4.734375 -22.109375 C 3.109375 -26.429688 2.296875 -30.882812 2.296875 -35.46875 C 2.296875 -40.113281 3.140625 -44.59375 4.828125 -48.90625 C 6.523438 -53.226562 8.898438 -57.03125 11.953125 -60.3125 C 15.003906 -63.601562 18.601562 -66.226562 22.75 -68.1875 C 26.90625 -70.144531 31.472656 -71.125 36.453125 -71.125 C 41.503906 -71.125 46.101562 -70.09375 50.25 -68.03125 C 54.40625 -65.976562 57.957031 -63.253906 60.90625 -59.859375 C 63.863281 -56.472656 66.140625 -52.625 67.734375 -48.3125 C 69.328125 -44 70.125 -39.582031 70.125 -35.0625 C 70.125 -30.414062 69.273438 -25.945312 67.578125 -21.65625 C 65.890625 -17.375 63.550781 -13.585938 60.5625 -10.296875 C 57.570312 -7.015625 53.984375 -4.378906 49.796875 -2.390625 C 45.617188 -0.398438 41.039062 0.59375 36.0625 0.59375 Z M 22.015625 -35.265625 C 22.015625 -32.867188 22.296875 -30.554688 22.859375 -28.328125 C 23.421875 -26.109375 24.300781 -24.132812 25.5 -22.40625 C 26.695312 -20.6875 28.191406 -19.296875 29.984375 -18.234375 C 31.773438 -17.171875 33.867188 -16.640625 36.265625 -16.640625 C 38.710938 -16.640625 40.832031 -17.1875 42.625 -18.28125 C 44.425781 -19.375 45.890625 -20.800781 47.015625 -22.5625 C 48.140625 -24.320312 48.984375 -26.328125 49.546875 -28.578125 C 50.117188 -30.835938 50.40625 -33.132812 50.40625 -35.46875 C 50.40625 -37.851562 50.101562 -40.15625 49.5 -42.375 C 48.90625 -44.601562 48.023438 -46.5625 46.859375 -48.25 C 45.703125 -49.945312 44.226562 -51.3125 42.4375 -52.34375 C 40.644531 -53.375 38.550781 -53.890625 36.15625 -53.890625 C 33.695312 -53.890625 31.585938 -53.359375 29.828125 -52.296875 C 28.066406 -51.234375 26.601562 -49.820312 25.4375 -48.0625 C 24.28125 -46.300781 23.421875 -44.304688 22.859375 -42.078125 C 22.296875 -39.859375 22.015625 -37.585938 22.015625 -35.265625 Z M 22.015625 -35.265625 "/></g></g></g><g fill="#ffb343" fill-opacity="1"><g transform="translate(715.20833, 440.226561)"><g><path d="M 89.25 0 L 70.328125 0 L 70.328125 -29.484375 C 70.328125 -32.078125 69.8125 -33.953125 68.78125 -35.109375 C 67.75 -36.273438 66.503906 -36.859375 65.046875 -36.859375 C 63.515625 -36.859375 61.898438 -36.160156 60.203125 -34.765625 C 58.515625 -33.367188 57.273438 -31.578125 56.484375 -29.390625 L 56.484375 0 L 37.546875 0 L 37.546875 -29.484375 C 37.546875 -32.078125 37.03125 -33.953125 36 -35.109375 C 34.976562 -36.273438 33.738281 -36.859375 32.28125 -36.859375 C 30.75 -36.859375 29.132812 -36.160156 27.4375 -34.765625 C 25.75 -33.367188 24.503906 -31.578125 23.703125 -29.390625 L 23.703125 0 L 4.78125 0 L 4.78125 -52.390625 L 21.8125 -52.390625 L 21.8125 -44.625 C 23.675781 -47.476562 26.234375 -49.648438 29.484375 -51.140625 C 32.734375 -52.640625 36.585938 -53.390625 41.046875 -53.390625 C 43.171875 -53.390625 45.03125 -53.140625 46.625 -52.640625 C 48.21875 -52.140625 49.59375 -51.457031 50.75 -50.59375 C 51.914062 -49.738281 52.847656 -48.78125 53.546875 -47.71875 C 54.242188 -46.65625 54.789062 -45.523438 55.1875 -44.328125 C 57.039062 -47.179688 59.578125 -49.40625 62.796875 -51 C 66.023438 -52.59375 69.695312 -53.390625 73.8125 -53.390625 C 77.257812 -53.390625 79.992188 -52.738281 82.015625 -51.4375 C 84.046875 -50.144531 85.59375 -48.535156 86.65625 -46.609375 C 87.71875 -44.691406 88.414062 -42.632812 88.75 -40.4375 C 89.082031 -38.25 89.25 -36.257812 89.25 -34.46875 Z M 89.25 0 "/></g></g></g><g fill="#b44949" fill-opacity="1"><g transform="translate(808.831614, 440.226561)"><g><path d="M 38.15625 1 C 30.25 1 24.601562 -2.054688 21.21875 -8.171875 L 21.21875 0 L 4.78125 0 L 4.78125 -72.71875 L 23.703125 -72.71875 L 23.703125 -44.625 C 25.234375 -47.476562 27.390625 -49.648438 30.171875 -51.140625 C 32.960938 -52.640625 36.253906 -53.390625 40.046875 -53.390625 C 43.234375 -53.390625 46.203125 -52.691406 48.953125 -51.296875 C 51.710938 -49.898438 54.085938 -47.988281 56.078125 -45.5625 C 58.066406 -43.144531 59.625 -40.257812 60.75 -36.90625 C 61.882812 -33.550781 62.453125 -29.914062 62.453125 -26 C 62.453125 -22.082031 61.835938 -18.476562 60.609375 -15.1875 C 59.378906 -11.90625 57.6875 -9.066406 55.53125 -6.671875 C 53.375 -4.285156 50.800781 -2.410156 47.8125 -1.046875 C 44.820312 0.316406 41.601562 1 38.15625 1 Z M 32.671875 -14.9375 C 35.796875 -14.9375 38.300781 -15.929688 40.1875 -17.921875 C 42.082031 -19.921875 43.03125 -22.582031 43.03125 -25.90625 C 43.03125 -27.5 42.78125 -28.988281 42.28125 -30.375 C 41.78125 -31.769531 41.113281 -33 40.28125 -34.0625 C 39.457031 -35.125 38.460938 -35.953125 37.296875 -36.546875 C 36.140625 -37.148438 34.863281 -37.453125 33.46875 -37.453125 C 31.476562 -37.453125 29.585938 -36.738281 27.796875 -35.3125 C 26.003906 -33.882812 24.640625 -32.007812 23.703125 -29.6875 L 23.703125 -20.328125 C 26.160156 -16.734375 29.148438 -14.9375 32.671875 -14.9375 Z M 32.671875 -14.9375 "/></g></g></g><g fill="#ff9191" fill-opacity="1"><g transform="translate(873.273017, 440.226561)"><g><path d="M 30.578125 1 C 25.992188 1 21.910156 0.285156 18.328125 -1.140625 C 14.742188 -2.566406 11.738281 -4.507812 9.3125 -6.96875 C 6.882812 -9.425781 5.039062 -12.25 3.78125 -15.4375 C 2.519531 -18.625 1.890625 -21.976562 1.890625 -25.5 C 1.890625 -29.28125 2.503906 -32.863281 3.734375 -36.25 C 4.960938 -39.644531 6.785156 -42.601562 9.203125 -45.125 C 11.628906 -47.644531 14.617188 -49.648438 18.171875 -51.140625 C 21.734375 -52.640625 25.867188 -53.390625 30.578125 -53.390625 C 35.222656 -53.390625 39.335938 -52.640625 42.921875 -51.140625 C 46.515625 -49.648438 49.519531 -47.660156 51.9375 -45.171875 C 54.363281 -42.679688 56.191406 -39.789062 57.421875 -36.5 C 58.648438 -33.21875 59.265625 -29.785156 59.265625 -26.203125 C 59.265625 -25.203125 59.210938 -24.1875 59.109375 -23.15625 C 59.015625 -22.125 58.898438 -21.210938 58.765625 -20.421875 L 22.015625 -20.421875 C 22.210938 -17.628906 23.238281 -15.617188 25.09375 -14.390625 C 26.957031 -13.160156 28.984375 -12.546875 31.171875 -12.546875 C 33.234375 -12.546875 35.175781 -13.007812 37 -13.9375 C 38.832031 -14.875 40.046875 -16.171875 40.640625 -17.828125 L 56.671875 -13.25 C 54.546875 -9.0625 51.273438 -5.640625 46.859375 -2.984375 C 42.453125 -0.328125 37.023438 1 30.578125 1 Z M 38.953125 -31.78125 C 38.617188 -34.300781 37.6875 -36.289062 36.15625 -37.75 C 34.632812 -39.207031 32.675781 -39.9375 30.28125 -39.9375 C 27.894531 -39.9375 25.9375 -39.207031 24.40625 -37.75 C 22.875 -36.289062 21.941406 -34.300781 21.609375 -31.78125 Z M 38.953125 -31.78125 "/></g></g></g></svg>