<?xml version="1.0" encoding="UTF-8"?>
<svg xmlns="http://www.w3.org/2000/svg" xmlns:xlink="http://www.w3.org/1999/xlink" width="200px" height="200px" viewBox="0 0 200 200" version="1.1">
<g id="surface1">
<path style=" stroke:none;fill-rule:nonzero;fill:rgb(36.862745%,9.019608%,92.156863%);fill-opacity:1;" d="M 33.707031 154.109375 L 33.707031 155.976562 L 3.789062 155.976562 L 3.789062 58.246094 L 33.707031 58.246094 L 33.707031 60.121094 L 29.03125 60.121094 C 26.46875 60.121094 24.824219 60.433594 24.097656 61.054688 C 23.367188 61.675781 23.007812 63.164062 23.007812 65.519531 L 23.007812 148.601562 C 23.007812 151.164062 23.332031 152.722656 23.988281 153.277344 C 24.648438 153.832031 26.292969 154.109375 28.921875 154.109375 Z M 33.707031 154.109375 "/>
<path style=" stroke:none;fill-rule:nonzero;fill:rgb(36.862745%,9.019608%,92.156863%);fill-opacity:1;" d="M 33.804688 66.660156 L 64.855469 66.660156 C 74.480469 66.660156 81.699219 67.960938 86.511719 70.5625 C 91.324219 73.15625 93.730469 77.535156 93.730469 83.695312 C 93.730469 93.179688 88.015625 98.855469 76.585938 100.726562 L 76.585938 100.9375 C 90.4375 102.664062 97.363281 108.6875 97.363281 119.003906 C 97.363281 126.554688 94.523438 131.835938 88.84375 134.84375 C 83.167969 137.855469 74.996094 139.359375 64.335938 139.359375 L 33.804688 139.359375 L 33.804688 137.386719 L 40.554688 137.386719 L 40.554688 68.636719 L 33.804688 68.636719 Z M 60.804688 102.59375 L 60.804688 137.386719 L 65.6875 137.386719 C 69.492188 137.386719 72.15625 136.074219 73.679688 133.445312 C 75.207031 130.8125 75.96875 126.933594 75.96875 121.8125 L 75.96875 116.304688 C 75.96875 111.734375 75.03125 108.3125 73.160156 106.027344 C 71.296875 103.742188 67.972656 102.59375 63.195312 102.59375 Z M 60.804688 68.636719 L 60.804688 100.621094 L 63.503906 100.621094 C 67.105469 100.621094 69.613281 99.53125 71.027344 97.351562 C 72.449219 95.167969 73.160156 91.828125 73.160156 87.328125 L 73.160156 82.445312 C 73.160156 77.324219 72.539062 73.742188 71.296875 71.703125 C 70.050781 69.660156 67.660156 68.636719 64.128906 68.636719 Z M 60.804688 68.636719 "/>
<path style=" stroke:none;fill-rule:nonzero;fill:rgb(36.862745%,9.019608%,92.156863%);fill-opacity:1;" d="M 102.234375 66.660156 L 133.285156 66.660156 C 142.914062 66.660156 150.132812 67.960938 154.945312 70.5625 C 159.753906 73.15625 162.160156 77.535156 162.160156 83.695312 C 162.160156 93.179688 156.445312 98.855469 145.019531 100.726562 L 145.019531 100.9375 C 158.871094 102.664062 165.792969 108.6875 165.792969 119.003906 C 165.792969 126.554688 162.953125 131.835938 157.277344 134.84375 C 151.597656 137.855469 143.429688 139.359375 132.769531 139.359375 L 102.234375 139.359375 L 102.234375 137.386719 L 108.984375 137.386719 L 108.984375 68.636719 L 102.234375 68.636719 Z M 129.234375 102.59375 L 129.234375 137.386719 L 134.121094 137.386719 C 137.921875 137.386719 140.589844 136.074219 142.109375 133.445312 C 143.636719 130.8125 144.402344 126.933594 144.402344 121.8125 L 144.402344 116.304688 C 144.402344 111.734375 143.464844 108.3125 141.59375 106.027344 C 139.726562 103.742188 136.40625 102.59375 131.628906 102.59375 Z M 129.234375 68.636719 L 129.234375 100.621094 L 131.9375 100.621094 C 135.535156 100.621094 138.042969 99.53125 139.460938 97.351562 C 140.882812 95.167969 141.59375 91.828125 141.59375 87.328125 L 141.59375 82.445312 C 141.59375 77.324219 140.972656 73.742188 139.726562 71.703125 C 138.480469 69.660156 136.09375 68.636719 132.5625 68.636719 Z M 129.234375 68.636719 "/>
<path style=" stroke:none;fill-rule:nonzero;fill:rgb(36.862745%,9.019608%,92.156863%);fill-opacity:1;" d="M 166.410156 155.976562 L 166.410156 154.109375 L 171.183594 154.109375 C 173.816406 154.109375 175.460938 153.832031 176.117188 153.277344 C 176.773438 152.722656 177.101562 151.164062 177.101562 148.601562 L 177.101562 65.519531 C 177.101562 63.164062 176.738281 61.675781 176.011719 61.054688 C 175.285156 60.433594 173.644531 60.121094 171.085938 60.121094 L 166.410156 60.121094 L 166.410156 58.246094 L 196.316406 58.246094 L 196.316406 155.976562 Z M 166.410156 155.976562 "/>
</g>
</svg>
