<svg xmlns="http://www.w3.org/2000/svg" xmlns:xlink="http://www.w3.org/1999/xlink" width="500" zoomAndPan="magnify" viewBox="0 0 375 374.999991" height="500" preserveAspectRatio="xMidYMid meet" version="1.0"><defs><g/></defs><g fill="#5e17eb" fill-opacity="1"><g transform="translate(-4.769907, 261.302095)"><g><path d="M 67.96875 27.65625 L 67.96875 31.15625 L 11.875 31.15625 L 11.875 -152.09375 L 67.96875 -152.09375 L 67.96875 -148.578125 L 59.203125 -148.578125 C 54.398438 -148.578125 51.316406 -147.992188 49.953125 -146.828125 C 48.585938 -145.660156 47.90625 -142.867188 47.90625 -138.453125 L 47.90625 17.328125 C 47.90625 22.128906 48.519531 25.050781 49.75 26.09375 C 50.988281 27.132812 54.070312 27.65625 59 27.65625 Z M 67.96875 27.65625 "/></g></g></g><g fill="#5e17eb" fill-opacity="1"><g transform="translate(59.288086, 261.302095)"><g><path d="M 4.09375 -136.3125 L 62.3125 -136.3125 C 80.363281 -136.3125 93.898438 -133.875 102.921875 -129 C 111.941406 -124.132812 116.453125 -115.925781 116.453125 -104.375 C 116.453125 -86.59375 105.738281 -75.945312 84.3125 -72.4375 L 84.3125 -72.046875 C 110.28125 -68.804688 123.265625 -57.515625 123.265625 -38.171875 C 123.265625 -24.015625 117.941406 -14.113281 107.296875 -8.46875 C 96.648438 -2.820312 81.332031 0 61.34375 0 L 4.09375 0 L 4.09375 -3.703125 L 16.75 -3.703125 L 16.75 -132.609375 L 4.09375 -132.609375 Z M 54.71875 -68.9375 L 54.71875 -3.703125 L 63.875 -3.703125 C 71.007812 -3.703125 76.003906 -6.164062 78.859375 -11.09375 C 81.722656 -16.03125 83.15625 -23.300781 83.15625 -32.90625 L 83.15625 -43.234375 C 83.15625 -51.796875 81.398438 -58.21875 77.890625 -62.5 C 74.390625 -66.789062 68.160156 -68.9375 59.203125 -68.9375 Z M 54.71875 -132.609375 L 54.71875 -72.640625 L 59.78125 -72.640625 C 66.53125 -72.640625 71.234375 -74.679688 73.890625 -78.765625 C 76.554688 -82.859375 77.890625 -89.125 77.890625 -97.5625 L 77.890625 -106.71875 C 77.890625 -116.320312 76.722656 -123.035156 74.390625 -126.859375 C 72.054688 -130.691406 67.578125 -132.609375 60.953125 -132.609375 Z M 54.71875 -132.609375 "/></g></g></g><g fill="#5e17eb" fill-opacity="1"><g transform="translate(187.598752, 261.302095)"><g><path d="M 4.09375 -136.3125 L 62.3125 -136.3125 C 80.363281 -136.3125 93.898438 -133.875 102.921875 -129 C 111.941406 -124.132812 116.453125 -115.925781 116.453125 -104.375 C 116.453125 -86.59375 105.738281 -75.945312 84.3125 -72.4375 L 84.3125 -72.046875 C 110.28125 -68.804688 123.265625 -57.515625 123.265625 -38.171875 C 123.265625 -24.015625 117.941406 -14.113281 107.296875 -8.46875 C 96.648438 -2.820312 81.332031 0 61.34375 0 L 4.09375 0 L 4.09375 -3.703125 L 16.75 -3.703125 L 16.75 -132.609375 L 4.09375 -132.609375 Z M 54.71875 -68.9375 L 54.71875 -3.703125 L 63.875 -3.703125 C 71.007812 -3.703125 76.003906 -6.164062 78.859375 -11.09375 C 81.722656 -16.03125 83.15625 -23.300781 83.15625 -32.90625 L 83.15625 -43.234375 C 83.15625 -51.796875 81.398438 -58.21875 77.890625 -62.5 C 74.390625 -66.789062 68.160156 -68.9375 59.203125 -68.9375 Z M 54.71875 -132.609375 L 54.71875 -72.640625 L 59.78125 -72.640625 C 66.53125 -72.640625 71.234375 -74.679688 73.890625 -78.765625 C 76.554688 -82.859375 77.890625 -89.125 77.890625 -97.5625 L 77.890625 -106.71875 C 77.890625 -116.320312 76.722656 -123.035156 74.390625 -126.859375 C 72.054688 -130.691406 67.578125 -132.609375 60.953125 -132.609375 Z M 54.71875 -132.609375 "/></g></g></g><g fill="#5e17eb" fill-opacity="1"><g transform="translate(315.909417, 261.302095)"><g><path d="M -3.890625 31.15625 L -3.890625 27.65625 L 5.0625 27.65625 C 10 27.65625 13.082031 27.132812 14.3125 26.09375 C 15.539062 25.050781 16.15625 22.128906 16.15625 17.328125 L 16.15625 -138.453125 C 16.15625 -142.867188 15.472656 -145.660156 14.109375 -146.828125 C 12.753906 -147.992188 9.675781 -148.578125 4.875 -148.578125 L -3.890625 -148.578125 L -3.890625 -152.09375 L 52.1875 -152.09375 L 52.1875 31.15625 Z M -3.890625 31.15625 "/></g></g></g></svg>